# xmcd CD database file
# Copyright (C) 1993-1998 Ti Kan
# 
# Track frame offsets:
#     183
#     24720
#     40510
#     58043
#     78668
#     102418
#     132863
# 
# Disc length: 1913 seconds
# 
# Revision: 1
# Processed by: cddbd v1.4b41PL1 Copyright (c) Steve Scherf et al.
# Submitted via: DiscPlay 4.0.4
# 
DISCID=56077707
DTITLE=Yardbirds - Live At Marquee Club, London March 1964
DYEAR=1900
DGENRE=
TTITLE0=Five Long Years
TTITLE1=Pretty Girl
TTITLE2=Louise
TTITLE3=I'm A Man
TTITLE4=Here 't Is
TTITLE5=I'm A Man
TTITLE6=Over Under Sideways Down
EXTD=
EXTT0=
EXTT1=
EXTT2=
EXTT3=
EXTT4=
EXTT5=
EXTT6=
PLAYORDER=
